Coordinates
version=1
nRows=19
nColumns=34
inDegrees=yes

Units are S.I. units (second, meters, Newtons, ...)
If the header above contains a line with 'inDegrees', this indicates whether rotational values are in degrees (yes) or radians (no).

endheader
time	pelvis_tilt	pelvis_list	pelvis_rotation	pelvis_tx	pelvis_ty	pelvis_tz	hip_flexion_r	hip_adduction_r	hip_rotation_r	knee_angle_r	ankle_angle_r	subtalar_angle_r	mtp_angle_r	hip_flexion_l	hip_adduction_l	hip_rotation_l	knee_angle_l	ankle_angle_l	subtalar_angle_l	mtp_angle_l	lumbar_extension	lumbar_bending	lumbar_rotation	arm_flex_r	arm_add_r	arm_rot_r	elbow_flex_r	pro_sup_r	arm_flex_l	arm_add_l	arm_rot_l	elbow_flex_l	pro_sup_l
      3.50000000	     -3.98280934	      4.57419004	     -1.99062731	      1.91291668	      0.85617736	     -0.17790151	     15.48053710	    -20.39676585	    -13.03192309	     42.65744645	     22.42919961	     10.04261638	      0.00000000	     14.08518322	     -2.10774019	     -4.57829559	     38.62485747	     20.53604626	     -0.12128471	      0.00000000	     -8.30740387	     -0.06375071	      6.25036055	     51.24452458	     10.63693945	     10.08529523	    120.30844437	     93.02852511	     75.28890513	     -1.36680191	     35.95917323	    105.91506568	     90.35650724
      3.51666670	     -4.36356647	      4.47382714	     -1.56362498	      1.91818536	      0.87087804	     -0.17487800	     13.66376225	    -19.37845618	    -14.25790942	     39.05130469	     19.58088082	      9.27746492	      0.00000000	     12.07491820	     -1.90874952	     -3.22114332	     33.95435026	     17.33623807	     -0.07546214	      0.00000000	     -7.25344191	     -1.20358080	      7.69928124	     56.30881731	     11.42238371	      7.14278581	    118.33930699	     92.53086420	     79.70473954	      1.86633816	     37.16913886	    103.54741668	     90.54547441
      3.53333330	     -4.78849704	      4.30581013	     -0.98283599	      1.92265254	      0.88591980	     -0.17135949	     11.75717981	    -18.09508442	    -15.42564787	     35.05532525	     16.28132292	      8.12251711	      0.00000000	     10.18932952	     -2.00188668	     -2.03852319	     29.24665622	     13.70245620	      0.24571610	      0.00000000	     -6.24278457	     -1.98916454	      8.99829990	     61.76061968	     11.75483683	      5.09173285	    114.34616458	     92.05534231	     83.38124447	      4.59610747	     38.06280460	    101.17775687	     90.63498927
      3.55000000	     -5.17873014	      4.20520732	     -0.23012091	      1.92683208	      0.89911485	     -0.16747155	      9.81502973	    -16.81740672	    -16.52296576	     30.95741208	     12.78458725	      6.91838511	      0.00000000	      8.50044724	     -2.17450977	     -0.93792300	     24.86505289	     10.03959856	      0.78105141	      0.00000000	     -5.17783293	     -2.65624866	     10.11191059	     68.20633405	     10.82567564	      3.83161090	    108.21265593	     91.56929738	     87.43123708	      6.85189511	     38.31785961	     98.48637094	     90.63690612
      3.56666670	     -5.52347492	      4.05895913	      0.65524678	      1.93077487	      0.90970806	     -0.16392851	      7.96614944	    -15.51903120	    -17.50222083	     27.05801616	      9.22726641	      5.78594828	      0.00000000	      7.05986033	     -2.49599191	      0.03732749	     20.84589127	      6.38896666	      1.54987900	      0.00000000	     -4.28341145	     -3.10361963	     10.94585996	     74.58194690	      8.72440817	      3.25007109	    101.28697187	     91.07332971	     91.21370549	      8.62529039	     37.60144572	     96.23439789	     90.56032952
      3.58333330	     -5.74602561	      3.90461354	      1.54519298	      1.93486025	      0.91452508	     -0.16136876	      6.33015054	    -14.38618811	    -18.35811286	     23.78527403	      5.93220159	      4.87826309	      0.00000000	      5.81753432	     -2.83912131	      0.86557495	     17.46721328	      3.17894496	      2.26519554	      0.00000000	     -3.49731130	     -3.38133596	     11.10381542	     82.24520890	      5.49666458	      3.85297207	     92.55854301	     90.08804804	     95.13411288	      9.30165265	     36.87189470	     94.96566507	     90.47046028
      3.60000000	     -6.35455967	      3.75758263	      2.28951645	      1.93921115	      0.91537390	     -0.15983861	      5.55139652	    -13.49322050	    -18.95720431	     21.29120905	      3.14512357	      4.11056817	      0.00000000	      5.34386559	     -3.13276880	      1.41521677	     14.92184300	      0.63884850	      2.81373784	      0.00000000	     -1.90978887	     -3.94118982	     11.10794729	     90.03086594	      0.37246859	      4.97100865	     83.60692562	     89.84738984	     99.77936082	     10.21969382	     35.35965520	     92.29840368	     90.39764907
      3.61666670	     -6.57649263	      3.44123751	      2.87181470	      1.94353099	      0.91770110	     -0.15959383	      4.48803337	    -12.52202633	    -19.34871684	     18.99269943	      0.81468797	      3.63933572	      0.00000000	      4.60994213	     -3.54036999	      1.67121785	     12.70654160	     -2.28825578	      2.85748837	      0.00000000	     -1.07541721	     -3.93380094	     10.31702248	     96.36008266	     -4.71335211	      7.60335768	     77.00228819	     89.18014733	    104.61143387	      9.86004464	     32.62724330	     90.43399588	     90.48645302
      3.63333330	     -6.98747361	      3.28152516	      3.36044558	      1.94828847	      0.92234891	     -0.16048810	      3.71124594	    -11.88326773	    -19.47550265	     16.83930441	     -1.61281221	      3.25819071	      0.00000000	      4.17338027	     -3.60567616	      1.95746581	     10.79864947	     -4.84105082	      2.49537371	      0.00000000	     -0.03147564	     -4.36330275	     10.08491781	    103.63291257	    -10.97176740	     10.56792920	     69.32361953	     88.51555303	    108.83936651	     10.25970806	     30.50021810	     88.54133501	     90.99549008
      3.65000000	     -7.37324978	      3.11029661	      3.71824039	      1.95258937	      0.92837088	     -0.16111502	      2.95743306	    -11.29321678	    -19.33455479	     14.72062470	     -4.23704266	      2.89590964	      0.00000000	      3.79920565	     -3.61618566	      2.01409855	      9.02256989	     -7.55611520	      1.93300714	      0.00000000	      0.90240124	     -4.85584871	      9.96863830	    110.75269593	    -16.10713453	     13.83408734	     60.96248282	     88.10436773	    112.48855991	     10.21265733	     29.70146439	     87.12006902	     91.83524666
      3.66666670	     -7.72431733	      2.95690853	      4.00132437	      1.95617717	      0.93275879	     -0.16102703	      2.22873511	    -10.78330562	    -18.79968083	     12.67962993	     -7.00642967	      2.52042184	      0.00000000	      3.46040098	     -3.55606298	      2.01587301	      7.37372235	    -10.22441925	      1.30191827	      0.00000000	      1.62375185	     -5.33731984	     10.08420394	    118.29954982	    -19.38041599	     17.76850981	     51.34946653	     87.97107387	    115.40197309	      9.82764943	     29.25464924	     86.08104371	     92.83609505
      3.68333330	     -8.00575815	      2.83382367	      4.29211129	      1.95989230	      0.93462795	     -0.16035590	      1.54108086	    -10.38465341	    -17.83974934	     10.85656369	     -9.81012182	      1.97596666	      0.00000000	      3.23664488	     -3.45956958	      1.78364922	      6.13751321	    -12.82569894	      0.63658061	      0.00000000	      2.09679056	     -5.86010044	     10.07171342	    126.11563408	    -20.05098114	     21.92290631	     40.70409398	     88.09152516	    118.13514157	      8.80943932	     29.13728480	     84.67687385	     93.55000489
      3.70000000	     -8.39960535	      2.71678077	      4.57683173	      1.96469044	      0.93640072	     -0.15979207	      1.09718796	    -10.14536270	    -16.78538519	      9.39664774	    -12.17048858	      1.55849443	      0.00000000	      3.04960641	     -3.29865881	      1.50531703	      4.96907164	    -14.53292427	     -0.07326272	      0.00000000	      2.43904713	     -6.17806164	     10.44160758	    134.44992530	    -18.87627774	     28.22420881	     29.79845957	     88.19805665	    120.35520576	      7.11071345	     29.33393662	     85.06771978	     94.08689692
      3.71666670	     -8.88368426	      2.56130971	      4.87018754	      1.96990820	      0.93786816	     -0.15960805	      0.90846227	     -9.95112479	    -15.43998569	      8.33617022	    -13.99253229	      1.27498891	      0.00000000	      3.04007944	     -3.13822698	      0.90507092	      4.15900827	    -15.92894318	     -0.69984129	      0.00000000	      2.79811857	     -6.38196857	     10.83014752	    141.32279765	    -16.71667178	     35.21632562	     21.51139017	     87.33709729	    122.01326065	      4.94034997	     29.74694995	     86.33479886	     94.19841522
      3.73333330	     -9.41008079	      2.42310297	      5.21795039	      1.97482408	      0.93852029	     -0.16061069	      0.84563379	     -9.86455750	    -13.93887595	      7.51601061	    -15.55996117	      1.07934705	      0.00000000	      3.05567668	     -2.85801158	      0.08438064	      3.42631572	    -16.88553970	     -1.34620607	      0.00000000	      3.17099623	     -6.56934394	     11.07605909	    146.76140820	    -14.10017099	     43.35460110	     16.11930141	     84.97959014	    123.09597079	      2.92853291	     30.23476785	     88.37266724	     93.99620689
      3.75000000	     -9.79028668	      2.34887027	      5.64699287	      1.97953671	      0.93796062	     -0.16264746	      0.71672735	     -9.95519830	    -12.16505238	      7.11646341	    -17.01625355	      0.52046724	      0.00000000	      2.96332292	     -2.44046309	     -0.69296878	      2.95225216	    -17.35060351	     -2.24591626	      0.00000000	      3.35505030	     -6.77791779	     10.90829532	    150.85556545	    -11.68513558	     52.61875481	     14.41811240	     80.29340763	    123.83896666	      1.05703919	     30.60956229	     90.88834169	     93.92119173
      3.76666670	     -9.87171563	      2.23044480	      6.14506029	      1.98451757	      0.93623305	     -0.16423117	      0.21489615	    -10.05054311	    -10.71522767	      6.82579536	    -18.04532070	      0.15610518	      0.00000000	      2.48736235	     -2.10485691	     -1.34694043	      2.46735923	    -17.62328188	     -2.95833690	      0.00000000	      3.29120077	     -7.02450481	     10.51978850	    153.18987777	    -10.24130163	     53.39866651	     17.05381522	     79.76212875	    123.90611765	      0.18052575	     30.15781629	     92.83739479	     93.99607993
      3.78333330	    -10.16999156	      2.03433453	      6.58298150	      1.98962874	      0.93558162	     -0.16477518	      0.07191071	    -10.14058817	     -9.72783957	      6.78908163	    -18.82102983	      0.30949693	      0.00000000	      2.33939725	     -1.88317382	     -2.02405512	      2.23905693	    -17.58488618	     -3.69391436	      0.00000000	      3.68707357	     -7.04638829	      9.76955236	    154.91343030	     -8.70301824	     57.48603493	     19.42958341	     78.97654583	    123.07956889	     -0.94404304	     29.87582255	     95.14194109	     94.52129093
      3.80000000	    -10.15852721	      1.93002243	      6.58105668	      1.99495658	      0.93514174	     -0.16399458	     -0.13194420	    -10.24370399	     -8.63836196	      7.13657994	    -18.54259446	      0.76781478	      0.00000000	      1.56494956	     -1.69114465	     -2.92913679	      1.67236081	    -17.50732868	     -4.35887897	      0.00000000	      3.53391282	     -7.17037206	      9.54182070	    156.59612482	     -7.35777824	     58.63126351	     21.34326334	     78.93202770	    122.40692599	     -1.59960088	     30.06962883	     97.25352012	     94.73532105
